<svg width="1440" height="60" viewBox="0 0 1440 60" fill="none" xmlns="http://www.w3.org/2000/svg">
<rect width="1440" height="60" fill="#DC3545"/>
<path d="M167.454 38V21.2727H174.053C175.322 21.2727 176.403 21.515 177.296 21.9996C178.189 22.4788 178.869 23.1458 179.338 24.0007C179.811 24.8501 180.048 25.8303 180.048 26.9411C180.048 28.0518 179.809 29.032 179.33 29.8814C178.85 30.7308 178.156 31.3924 177.247 31.8661C176.343 32.3398 175.248 32.5767 173.963 32.5767H169.757V29.7425H173.392C174.072 29.7425 174.633 29.6255 175.074 29.3913C175.521 29.1518 175.853 28.8223 176.071 28.4031C176.294 27.9783 176.406 27.491 176.406 26.9411C176.406 26.3857 176.294 25.901 176.071 25.4872C175.853 25.0679 175.521 24.744 175.074 24.5153C174.628 24.2811 174.061 24.1641 173.375 24.1641H170.99V38H167.454ZM185.759 21.2727V38H182.28V21.2727H185.759ZM196.592 32.6584V25.4545H200.071V38H196.731V35.7212H196.6C196.317 36.4563 195.846 37.0471 195.187 37.4936C194.534 37.9401 193.736 38.1634 192.794 38.1634C191.955 38.1634 191.218 37.9728 190.58 37.5916C189.943 37.2105 189.445 36.6687 189.086 35.9663C188.732 35.2638 188.552 34.4226 188.547 33.4425V25.4545H192.026V32.8217C192.032 33.5623 192.23 34.1476 192.622 34.5778C193.014 35.0079 193.54 35.223 194.199 35.223C194.618 35.223 195.01 35.1277 195.375 34.9371C195.74 34.7411 196.034 34.4525 196.257 34.0714C196.486 33.6902 196.597 33.2192 196.592 32.6584ZM214.55 25.4545L210.164 38H206.244L201.858 25.4545H205.533L208.139 34.4308H208.269L210.867 25.4545H214.55ZM216.331 38V25.4545H219.81V38H216.331ZM218.079 23.8374C217.561 23.8374 217.118 23.6658 216.747 23.3228C216.383 22.9743 216.2 22.5578 216.2 22.0732C216.2 21.594 216.383 21.1829 216.747 20.8398C217.118 20.4914 217.561 20.3171 218.079 20.3171C218.596 20.3171 219.037 20.4914 219.402 20.8398C219.772 21.1829 219.957 21.594 219.957 22.0732C219.957 22.5578 219.772 22.9743 219.402 23.3228C219.037 23.6658 218.596 23.8374 218.079 23.8374ZM228.266 38.245C226.997 38.245 225.9 37.9755 224.974 37.4364C224.054 36.8919 223.343 36.1351 222.843 35.1658C222.342 34.1912 222.091 33.0613 222.091 31.7763C222.091 30.4804 222.342 29.3478 222.843 28.3786C223.343 27.4039 224.054 26.647 224.974 26.108C225.9 25.5634 226.997 25.2912 228.266 25.2912C229.535 25.2912 230.629 25.5634 231.549 26.108C232.475 26.647 233.188 27.4039 233.689 28.3786C234.19 29.3478 234.441 30.4804 234.441 31.7763C234.441 33.0613 234.19 34.1912 233.689 35.1658C233.188 36.1351 232.475 36.8919 231.549 37.4364C230.629 37.9755 229.535 38.245 228.266 38.245ZM228.282 35.5497C228.859 35.5497 229.341 35.3864 229.728 35.0597C230.114 34.7275 230.406 34.2756 230.602 33.7038C230.803 33.1321 230.904 32.4814 230.904 31.7518C230.904 31.0221 230.803 30.3714 230.602 29.7997C230.406 29.228 230.114 28.776 229.728 28.4439C229.341 28.1117 228.859 27.9457 228.282 27.9457C227.7 27.9457 227.209 28.1117 226.812 28.4439C226.42 28.776 226.123 29.228 225.922 29.7997C225.726 30.3714 225.628 31.0221 225.628 31.7518C225.628 32.4814 225.726 33.1321 225.922 33.7038C226.123 34.2756 226.42 34.7275 226.812 35.0597C227.209 35.3864 227.7 35.5497 228.282 35.5497Z" fill="white"/>
<path d="M290.088 35.0923C289.74 35.0923 289.431 35.0343 289.161 34.9183C288.894 34.8 288.682 34.6224 288.526 34.3857C288.372 34.1465 288.295 33.8471 288.295 33.4872C288.295 33.1842 288.348 32.9285 288.455 32.7202C288.561 32.5118 288.708 32.3426 288.895 32.2124C289.082 32.0821 289.297 31.9839 289.541 31.9176C289.785 31.849 290.045 31.8028 290.322 31.7791C290.633 31.7507 290.882 31.7211 291.072 31.6903C291.261 31.6572 291.398 31.611 291.484 31.5518C291.571 31.4903 291.615 31.4039 291.615 31.2926V31.2749C291.615 31.0926 291.552 30.9517 291.427 30.8523C291.301 30.7528 291.132 30.7031 290.919 30.7031C290.689 30.7031 290.505 30.7528 290.365 30.8523C290.225 30.9517 290.137 31.089 290.099 31.2642L288.497 31.2074C288.545 30.8759 288.666 30.58 288.863 30.3196C289.062 30.0568 289.334 29.8509 289.68 29.7017C290.028 29.5502 290.446 29.4744 290.933 29.4744C291.281 29.4744 291.602 29.5159 291.896 29.5987C292.189 29.6792 292.445 29.7976 292.663 29.9538C292.88 30.1077 293.049 30.2971 293.167 30.522C293.288 30.7469 293.348 31.0038 293.348 31.2926V35H291.714V34.2401H291.672C291.575 34.4247 291.451 34.581 291.299 34.7088C291.15 34.8366 290.973 34.9325 290.77 34.9964C290.569 35.0604 290.341 35.0923 290.088 35.0923ZM290.624 33.956C290.811 33.956 290.979 33.9181 291.129 33.8423C291.28 33.7666 291.401 33.6624 291.491 33.5298C291.581 33.3949 291.626 33.2386 291.626 33.0611V32.5426C291.576 32.5687 291.516 32.5923 291.445 32.6136C291.376 32.6349 291.3 32.6551 291.217 32.674C291.134 32.6929 291.049 32.7095 290.962 32.7237C290.874 32.7379 290.79 32.7509 290.71 32.7628C290.546 32.7888 290.406 32.8291 290.29 32.8835C290.177 32.938 290.089 33.009 290.028 33.0966C289.969 33.1818 289.939 33.2836 289.939 33.402C289.939 33.5819 290.003 33.7192 290.131 33.8139C290.261 33.9086 290.425 33.956 290.624 33.956ZM296.16 37.0455V29.5455H297.879V30.4794H297.932C298.003 30.3137 298.103 30.1539 298.234 30C298.366 29.8461 298.534 29.7206 298.738 29.6236C298.944 29.5241 299.19 29.4744 299.477 29.4744C299.855 29.4744 300.209 29.5739 300.538 29.7727C300.87 29.9716 301.137 30.2782 301.341 30.6925C301.545 31.1068 301.646 31.6347 301.646 32.2763C301.646 32.8942 301.548 33.4115 301.352 33.8281C301.157 34.2448 300.895 34.5573 300.563 34.7656C300.234 34.974 299.868 35.0781 299.466 35.0781C299.191 35.0781 298.953 35.0331 298.752 34.9432C298.551 34.8532 298.382 34.7348 298.244 34.5881C298.109 34.4413 298.005 34.2839 297.932 34.1158H297.896V37.0455H296.16ZM297.861 32.2727C297.861 32.5663 297.9 32.822 297.978 33.0398C298.058 33.2576 298.173 33.4268 298.322 33.5476C298.474 33.666 298.655 33.7251 298.866 33.7251C299.079 33.7251 299.26 33.666 299.409 33.5476C299.558 33.4268 299.671 33.2576 299.746 33.0398C299.825 32.822 299.864 32.5663 299.864 32.2727C299.864 31.9792 299.825 31.7247 299.746 31.5092C299.671 31.2938 299.558 31.1269 299.409 31.0085C299.262 30.8902 299.081 30.831 298.866 30.831C298.653 30.831 298.472 30.889 298.322 31.005C298.173 31.121 298.058 31.2867 297.978 31.5021C297.9 31.7176 297.861 31.9744 297.861 32.2727ZM304.306 37.0455V29.5455H306.025V30.4794H306.078C306.149 30.3137 306.25 30.1539 306.38 30C306.513 29.8461 306.681 29.7206 306.884 29.6236C307.09 29.5241 307.337 29.4744 307.623 29.4744C308.002 29.4744 308.356 29.5739 308.685 29.7727C309.016 29.9716 309.284 30.2782 309.487 30.6925C309.691 31.1068 309.793 31.6347 309.793 32.2763C309.793 32.8942 309.695 33.4115 309.498 33.8281C309.304 34.2448 309.041 34.5573 308.71 34.7656C308.381 34.974 308.015 35.0781 307.612 35.0781C307.338 35.0781 307.1 35.0331 306.899 34.9432C306.697 34.8532 306.528 34.7348 306.391 34.5881C306.256 34.4413 306.152 34.2839 306.078 34.1158H306.043V37.0455H304.306ZM306.007 32.2727C306.007 32.5663 306.046 32.822 306.124 33.0398C306.205 33.2576 306.32 33.4268 306.469 33.5476C306.62 33.666 306.802 33.7251 307.012 33.7251C307.225 33.7251 307.406 33.666 307.556 33.5476C307.705 33.4268 307.817 33.2576 307.893 33.0398C307.971 32.822 308.01 32.5663 308.01 32.2727C308.01 31.9792 307.971 31.7247 307.893 31.5092C307.817 31.2938 307.705 31.1269 307.556 31.0085C307.409 30.8902 307.228 30.831 307.012 30.831C306.799 30.831 306.618 30.889 306.469 31.005C306.32 31.121 306.205 31.2867 306.124 31.5021C306.046 31.7176 306.007 31.9744 306.007 32.2727Z" fill="white"/>
<rect x="285.5" y="23.5" width="28" height="15" rx="3.5" stroke="white"/>
</svg>
